<?xml version="1.0" standalone="no"?><!DOCTYPE svg PUBLIC "-//W3C//DTD SVG 1.1//EN" "http://www.w3.org/Graphics/SVG/1.1/DTD/svg11.dtd"><svg t="1588643793760" class="icon" viewBox="0 0 3429 1024" version="1.1" xmlns="http://www.w3.org/2000/svg" p-id="2243" xmlns:xlink="http://www.w3.org/1999/xlink" width="669.7265625" height="200"><defs><style type="text/css"></style></defs><path d="M411.204128 89.462525m-36.588743 0a36.588743 36.588743 0 1 0 73.177486 0 36.588743 36.588743 0 1 0-73.177486 0Z" fill="" p-id="2244"></path><path d="M682.570638 89.462525m-36.588743 0a36.588743 36.588743 0 1 0 73.177486 0 36.588743 36.588743 0 1 0-73.177486 0Z" fill="" p-id="2245"></path><path d="M682.570638 393.606451m-36.588743 0a36.588743 36.588743 0 1 0 73.177486 0 36.588743 36.588743 0 1 0-73.177486 0Z" fill="" p-id="2246"></path><path d="M682.570638 698.512641m-36.588743 0a36.588743 36.588743 0 1 0 73.177486 0 36.588743 36.588743 0 1 0-73.177486 0Z" fill="" p-id="2247"></path><path d="M411.204128 393.606451m-36.588743 0a36.588743 36.588743 0 1 0 73.177486 0 36.588743 36.588743 0 1 0-73.177486 0Z" fill="" p-id="2248"></path><path d="M0.343036 699.274907c0-48.784991 38.875539-89.947326 88.422795-89.947326 48.784991 0 89.185061 41.162336 89.185061 89.947326 0 48.022725-39.637805 87.66053-89.185061 87.66053C39.218576 787.697702 0.343036 748.059897 0.343036 699.274907zM0.343036 395.130982C0.343036 345.583726 39.218576 305.183655 88.765831 305.183655c48.784991 0 89.185061 41.162336 89.185061 89.947327 0 48.022725-39.637805 87.66053-89.185061 87.660529C39.218576 482.791511 0.343036 443.153707 0.343036 395.130982zM1.867567 71.930419C12.539284 23.907694 59.037478-8.107456 107.060203 1.801996c48.022725 9.909451 78.513344 58.694442 68.603893 106.717166-9.909451 47.26046-57.169911 77.751079-105.192636 67.841628-48.022725-9.909451-78.513344-57.169911-68.603893-104.430371zM322.781333 699.274907c0-48.784991 38.875539-89.947326 88.422795-89.947326 48.784991 0 89.185061 41.162336 89.185061 89.947326 0 48.022725-39.637805 87.66053-89.185061 87.66053-49.547256 0.762265-88.422795-38.875539-88.422795-87.66053zM1072.850562 20.096367c0-9.909451 8.38492-19.818902 19.818902-19.818902h121.962477c9.909451 0 19.056637 9.147186 19.056637 19.818902v617.435036h276.702368c11.433982 0 19.818902 9.147186 19.818902 19.818903v111.290759c0 9.909451-8.38492 19.818902-19.818902 19.818903h-418.483747c-11.433982 0-19.818902-9.147186-19.818902-19.818903V20.096367zM1605.67413 90.224791c0-48.784991 38.875539-89.947326 88.422796-89.947326 48.784991 0 89.185061 41.162336 89.18506 89.947326 0 48.022725-39.637805 87.66053-89.18506 87.66053-49.547256 0.762265-88.422795-39.637805-88.422796-87.66053z m10.671717 237.064563c0-12.958513 9.909451-22.867964 22.867964-22.867964h110.528494c12.196248 0 22.867964 9.147186 22.867965 22.867964v438.302649c0 12.196248-9.909451 22.867964-22.867965 22.867965H1639.213811c-12.196248 0-22.867964-9.909451-22.867964-22.867965V327.289354zM1858.746269 337.198805c0-12.958513 9.909451-22.867964 22.867964-22.867964h45.735929c6.860389 0 16.007575 5.335858 21.343433 14.483044l17.532106 47.26046c25.917026-28.966088 61.743504-71.652955 147.117237-71.652955 147.117237 0 197.426758 104.43037 197.426758 234.777767v226.392846c0 12.196248-9.909451 22.867964-21.343433 22.867965h-111.29076c-12.958513 0-22.867964-9.909451-22.867964-22.867965v-228.679643c0-44.973663-15.24531-86.898264-68.603893-86.898264-47.26046 0-71.652955 32.777416-71.652955 80.80014v234.777767c0 9.909451-5.335858 22.867964-21.343433 22.867965h-112.815291c-12.196248 0-22.867964-9.909451-22.867964-22.867965V337.198805zM2873.321618 772.452393c0 170.747467-110.528494 251.547607-253.072138 251.547607-70.890689 0-152.453095-32.01515-176.083325-51.071787-6.860389-6.098124-9.147186-16.007575-5.335858-26.679292l35.826477-86.135999c3.811327-9.147186 17.532106-15.24531 27.441557-9.147185 22.867964 12.958513 61.743504 38.113274 114.339822 38.113274 58.694442 0 100.619043-22.867964 100.619043-94.52092V770.165596c-15.24531 12.196248-65.554831 28.966088-109.766229 28.966088-125.773804 0-234.777767-81.562406-234.777767-248.498545 0-134.920989 100.619043-245.449484 233.253236-245.449484 104.43037 0 160.07575 72.41522 160.07575 72.415221l12.958513-38.87554c3.811327-12.196248 12.958513-23.63023 24.392495-23.630229h45.735929c12.196248 0 22.867964 11.433982 22.867964 22.867964v434.491322z m-242.400421-119.67568c58.694442 0 100.619043-44.211398 100.619043-101.381309 0-56.407645-41.924601-101.381308-100.619043-101.381308-56.407645 0-100.619043 44.973663-100.619043 101.381308 0 57.169911 44.211398 101.381308 100.619043 101.381309zM3182.801402 304.42139c134.920989 0 245.449484 112.815291 245.449483 245.449483 0 134.920989-110.528494 248.498545-245.449483 248.498546s-246.974014-113.577556-246.974015-248.498546c0-132.634193 111.29076-245.449484 246.974015-245.449483z m0 348.355323c54.120849 0 98.332247-47.26046 98.332246-102.143574 0-54.120849-44.211398-100.619043-98.332246-100.619043-55.64538 0-99.094512 45.735929-99.094512 100.619043-0.762265 54.883114 43.449132 102.143574 99.094512 102.143574z" fill="" p-id="2249"></path></svg>