<?xml version="1.0" standalone="no"?><!DOCTYPE svg PUBLIC "-//W3C//DTD SVG 1.1//EN" "http://www.w3.org/Graphics/SVG/1.1/DTD/svg11.dtd"><svg t="1588643007835" class="icon" viewBox="0 0 1024 1024" version="1.1" xmlns="http://www.w3.org/2000/svg" p-id="2105" xmlns:xlink="http://www.w3.org/1999/xlink" width="200" height="200"><defs><style type="text/css"></style></defs><path d="M985.94354 731.810368c-0.82249 2.673092-76.080314 292.395151-372.382292 292.189529-255.999974 0-377.317231-222.689134-377.317232-222.689134-18.711645 1.028112-36.6008-1.850602-53.256219-8.019276-75.052201-27.553411-111.241756-113.503603-85.333325-185.67709l-41.330116-31.460238C-103.444303 454.425657 349.541997-103.016857 509.721901 23.029717c0.82249 0.616867 38.245779 30.84337 38.245779 30.84337 57.574291-34.95582 114.531715-53.873087 160.796771-53.873087 32.899595 0 60.453006 9.458634 78.959028 29.609636 41.535739 45.031321 26.730921 130.981513-30.226503 217.959817 12.131726 11.514858 22.412849 27.347788 29.609636 42.975096 18.094777 13.982328 29.815258 35.161442 35.572687 64.359833 6.374297 32.48835 7.813654 78.753406 11.926103 98.698785 15.216063 6.991164 8.841766 3.701204 25.085941 11.926104 17.066665 8.430521 37.834534 18.917267 60.658629 40.918871 40.713249 10.281123 56.340557 53.461842 32.48835 83.071478-0.616867 0.82249-3.495582 4.112449-6.579919 7.608031 0.616867 1.850602 8.430521 14.599195 14.18795 40.302004 16.861042 3.906827 30.226503 14.393573 37.42329 29.404013 12.131726 29.404013-11.926103 64.9767-11.926103 64.9767z m-117.41043 218.782308v12.131725h4.729316v-12.131725h4.729317v-3.906827H863.803793v3.906827h4.729317z m10.89799-3.906827v16.038552h4.318072v-11.514858l3.495582 11.514858h3.701205l3.495582-11.514858v11.514858h4.318072v-16.038552h-6.579919l-2.878715 9.253011-2.878715-9.253011h-6.991164z" fill="#684C46" p-id="2106"></path><path d="M296.697022 622.624837c6.374297-16.449798 9.664256-29.815258 9.664257-29.815258 7.402409 22.618472 11.103613 46.265056 9.664256 70.322885 6.168674-8.224899 12.748593-23.440962 12.748593-23.440962 11.309236 67.032925-37.628912 128.308421-101.988745 128.308421-57.163046 0-103.633725-48.732525-103.633725-108.979909s46.470678-108.979909 103.633725-108.979909c14.804818 0 28.992768 3.28996 41.741361 9.253012 0-0.205622 22.001604 10.897991 28.170278 63.33172z m563.816811 236.46584c80.398386-63.126098 94.380713-139.206412 95.614449-141.673882 19.739757-23.646584 14.393573-47.087545-11.720481-47.087545-8.224899 0-14.599195 2.261847-14.599196 2.261847s0-34.544575-15.83293-61.481118c-12.337348 13.776705-46.470678 41.330116-91.501999 62.714853-42.152606 19.94538-98.28754 37.423289-167.993557 39.890759-19.534135 0.82249-31.66586-2.261847-38.451402 20.356624-2.261847 8.019276-1.233735 19.94538 0.411245 23.440962 5.551807 18.917267 19.94538 27.142166 38.657024 31.460238 14.393573 3.28996 29.609636 3.701204 29.609636 3.701204 141.262636 3.906827 254.766239-106.306817 255.999974-107.129306 1.233735-1.028112 2.46747-2.261847 2.46747-2.261847s-1.233735 2.878715-1.439357 3.289959c-20.356624 45.853811-138.589544 129.130911-256.205597 126.663441l-0.411245 0.205623c-27.347788-0.205622-60.453006-7.196786-77.725293-28.581524-27.347788-33.722085-13.159838-90.062642 30.226503-91.296376 0 0 10.075501-0.205622 14.393572-0.411245 107.540551-3.28996 203.97749-42.769474 273.272262-125.429706 9.458634-11.720481-1.028112-27.964656-21.795982-28.581523-0.205622 0-0.411245 0-0.411245-0.205623-24.469074-26.114054-45.853811-35.367065-64.9767-45.031321-40.096382-20.356624-36.189555-2.878715-45.648188-101.783122-2.46747-26.730921-7.608031-63.126098-31.048993-76.902804-6.168674-3.701204-12.954216-5.140562-19.739757-5.140561s-10.281123 1.439357-11.514858 1.644979c-12.748593 2.878715-20.151002 10.075501-29.198391 18.506023-43.180719 39.890759-77.725293 28.992768-129.336533 28.581523-48.32128-0.411245-91.090754 33.31084-99.315653 85.127702-3.906827 27.142166-1.439357 54.695577 2.878715 67.032925 0 0-13.159838-8.636144-19.328512-16.449797 7.608031 47.293168 50.78875 78.342161 50.78875 78.342161-6.785541 1.64498-16.65542 0.82249-16.65542 0.822489s24.674696 19.534135 46.059433 26.319676c-5.551807 3.495582-33.722085 31.254615-48.321281 69.500395-13.571083 35.77831-8.019276 78.753406-8.019276 78.753406l11.720481-17.683533s-7.608031 39.273892 7.196786 77.108426c4.934939-11.309236 15.83293-31.460238 15.83293-31.460237s-1.64498 42.152606 18.506023 76.697181c0.616867-8.019276 3.495582-28.170278 3.495582-28.170279s11.720481 35.983932 38.451401 61.069874c50.994372 44.825698 184.237733 53.050597 285.60961-26.730921z" fill="#F5DCBA" p-id="2107"></path><path d="M113.28178 576.976649c-0.411245-0.205622-39.068269-28.375901-44.414454-37.834534C36.378976 484.446538 92.719533 371.971047 133.021537 308.022459 232.33719 150.104403 397.657655 25.291564 472.709856 43.180719l77.108426 39.890759c-30.020881 17.683532-58.808026 39.273892-76.285936 53.667464l-16.449797 13.776706s-47.910035 32.282728-71.762242 52.639352c-95.614448 81.426498-189.583917 207.678694-224.539737 329.407196 0.205622-0.205622-28.375901 13.982328-47.49879 44.414453z" fill="#0788BF" p-id="2108"></path><path d="M472.709856 43.180719c-75.052201-17.889155-240.372667 106.923684-339.688319 265.047363v0.205622h0.411245l79.164651 62.303608c86.978305-137.972677 196.163836-209.118051 199.248172-211.174276L399.097012 75.052201l23.440962-11.309236 47.087545 15.216063-3.701204-15.83293 6.785541-19.945379z" fill="#46B8E3" p-id="2109"></path><path d="M549.818282 82.865855l-76.285936 53.667465-5.346184 4.112449-67.649793-55.312444-1.644979-10.486746 23.440961-11.309236c1.233735 0.411245 45.236943 14.599195 47.087546 15.216063l0.82249-29.198391 2.261847-6.579919 20.562247-7.813654c0.205622 0 56.546179 47.704413 56.751801 47.704413z" fill="#FFD14F" p-id="2110"></path><path d="M700.128307 30.226503c-50.377505 0-106.923684 26.525299-150.515647 52.639352-6.168674 3.495582-12.131726 7.402409-18.094778 11.103613l-22.618471-19.122889 8.224899 28.581523c-3.084337 2.056225-6.168674 4.318072-9.047389 6.374297l-46.881923-14.393573L492.243991 121.317257c-6.991164 5.346184-13.365461 10.486746-18.711645 14.804818L399.097012 75.052201l3.906827 27.553411 54.07871 47.704413s-47.910035 32.282728-71.762242 52.639352c-95.614448 81.426498-189.583917 207.678694-224.539737 329.407196l2.056225-1.028112c0.205622-0.205622 0.616867-0.205622 0.82249-0.411245 1.028112-0.616867 1.850602-1.028112 2.878714-1.439358 0.616867-0.411245 1.233735-0.616867 1.850603-1.028112 1.028112-0.411245 2.056225-0.82249 3.084337-1.439357 0.616867-0.205622 1.233735-0.616867 1.850602-0.82249 1.028112-0.411245 2.261847-0.82249 3.289959-1.233735 0.411245-0.205622 1.028112-0.411245 1.439358-0.616867 1.64498-0.616867 3.084337-1.028112 4.729316-1.64498 23.646584-6.991164 55.929312-11.720481 93.763846 4.318072 18.917267-47.910035 41.535739-96.436938 77.314049-143.318861 28.992768-37.834534 56.751802-71.762242 90.268264-90.473887 63.331721-59.424894 233.792748-122.345369 288.282702-67.855415 12.954216-21.179114 24.057829-41.124494 33.31084-66.210435 22.824094-59.836139 23.235339-128.925288-65.593568-128.925288z" fill="#122030" p-id="2111"></path><path d="M483.81347 83.482723L472.709856 43.180719l-6.579919 20.151002 3.906827 15.83293z" fill="#122030" p-id="2112"></path><path d="M929.808605 672.385475s0-34.544575-15.83293-61.481119c-12.337348 13.776705-46.470678 41.330116-91.501999 62.714853-42.152606 19.94538-98.28754 37.423289-167.993557 39.89076-19.534135 0.82249-31.66586-2.261847-38.451402 20.356624-0.616867 2.056225-0.82249 4.112449-1.028112 6.374297v0.205622c0 0.82249-0.205622 1.439357-0.205623 2.261847V748.877033c0 1.028112 0.205622 2.056225 0.205623 2.878715v0.411245c0.411245 3.701204 1.233735 5.346184 1.233735 5.551806v0.205623c5.551807 18.711645 19.94538 26.936543 38.657024 31.254615 14.393573 3.28996 29.609636 3.701204 29.609636 3.701205 115.354205 3.28996 211.996766-69.500395 244.485116-96.848183 0.82249-8.224899 1.233735-13.571083 0.822489-23.646584z m-331.052175-615.633673c27.553411-12.748593 56.957424-22.824094 85.333325-25.702809-28.170278 6.374297-62.303608 20.973492-103.016857 45.648188-1.028112 0.616867-96.025693 64.771078-154.216852 122.345369-31.66586 31.460238-158.740546 183.826488-158.534924 183.620865 23.235339-44.003208 38.451402-65.593568 75.257823-111.858623 20.767869-26.114054 42.975096-51.61124 65.799191-75.052201 7.608031-7.813654 15.421685-15.627308 23.029716-23.029717 2.878715-2.46747 69.294772-70.528507 166.348578-115.971072z" fill="#FFFFFF" p-id="2113"></path><path d="M860.513833 859.090677c-13.776705 10.897991-28.170278 19.94538-42.769473 27.759033-33.927707-12.954216-54.695577-40.302004-54.695577-40.302004s29.198391-6.785541 68.061037-26.730921c47.293168-24.057829 91.501999-58.808026 125.224084-102.39999-1.439357 2.46747-15.627308 78.547783-95.820071 141.673882z m-92.324488-366.419241c-16.449798-11.720481-43.591963-2.46747-49.555016 16.861043 9.458634 0.411245 19.534135 7.608031 18.917268 16.861042 6.785541-6.579919 16.244175-10.075501 25.497186-10.075501-4.523694-6.991164-2.261847-19.328512 5.140562-23.646584z m-172.31163 235.848973c5.140562-19.328512 19.739757-34.544575 42.152607-35.161442 0 0 10.075501-0.205622 14.393572-0.411245 107.540551-3.28996 203.97749-42.769474 273.272262-125.429707 9.458634-11.720481-1.028112-27.964656-21.795982-28.581523h-0.205622c-3.495582 3.701204-4.112449 10.486746-9.869879 20.562247-20.973492 36.6008-50.171883 53.25622-88.828906 72.584732-118.849787 59.219271-180.536528 31.66586-205.211225 67.855415-7.196786 10.692368-7.402409 22.618472-3.906827 28.581523z m215.081103-248.186321c-11.309236-8.224899-11.720481-22.412849-17.889155-88.212039-2.056225-20.973492-5.551807-47.910035-18.300399-65.387945-2.673092-2.261847-6.374297-4.934939-11.720481-4.93494-8.019276-0.411245-17.272287 8.019276-22.412849 13.776706-14.804818 21.384737-28.787146 34.95582-53.873087 46.881923-25.291564 11.514858-49.14377 15.627308-74.229712 14.804818-18.3004-0.616867-34.13333-3.495582-49.760637-3.701205-28.992768-0.411245-54.078709 9.047389-72.379109 32.077105-12.542971 15.83293-17.683532 32.693973-19.12289 52.639353 0 2.46747 0.205622 4.729317 0.205622 6.785541 0.205622 3.084337 0.411245 6.168674 0.82249 9.047389 1.233735 10.075501 3.084337 15.421685 3.084337 15.421685v0.205622c0.205622 0.411245 0.205622 1.028112 0.411245 1.439358 0 0-13.159838-8.636144-19.328512-16.449798 6.374297 39.479514 37.423289 67.649792 47.498791 75.874691 0.616867 0.411245 1.233735 0.82249 1.850602 1.439358l0.205622 0.205622c0.82249 0.616867 1.233735 1.028112 1.233735 1.028112-6.785541 1.64498-16.65542 0.82249-16.65542 0.82249s24.674696 19.534135 46.059433 26.319676c28.375901-24.057829 60.453006-33.105218 86.978305-35.983932 16.038553-9.869879 33.105218-19.739757 51.611239-28.992768-5.551807-34.750197 25.291564-69.91164 64.154211-73.201599 29.404013-2.056225 43.591963 11.103613 53.873087 25.085941 5.551807-1.850602 11.926103-3.701204 18.917267-5.757429l-1.233735-1.233735z m13.982328 234.409615c-0.205622 0-0.616867 0-1.028112 0.205623-11.720481 2.673092-132.42087 49.555015-208.912429 25.497186-0.411245 4.112449-0.205622 12.954216 1.439357 16.861042 11.514858 2.261847 26.114054 3.701204 43.180719 3.701205 100.549387 0.205622 172.928497-45.648188 165.320465-46.265056z m-562.171831-9.253011c0.205622 0 0.205622 0 0 0 6.168674-6.579919 8.841766-15.83293 7.402409-24.674696-2.261847-12.542971-16.65542-15.216063-26.114054-25.085941-0.205622-0.205622-0.205622-0.411245-0.411245-0.411245-0.205622-0.205622-0.411245-0.411245-0.411245-0.616868-4.318072-4.934939-5.757429-10.486746-5.346184-15.421685 0.82249-12.954216 12.337348-16.65542 18.3004-14.18795 0 0 6.991164 1.64498 12.542971 9.253011-0.82249-2.46747-0.616867-6.579919-4.93494-12.748593-6.991164-10.075501-23.235339-20.151002-46.059433-15.216063-4.318072 0.82249-1.850602 0.411245-5.963051 1.64498l-1.850603 0.616867c-1.233735 0.616867-2.46747 1.028112-3.701204 1.64498-0.616867 0.411245-4.112449 1.850602-8.224899 4.934939-25.908431 33.31084 17.683532 93.763846 64.771078 90.268264z" fill="#EABE8D" p-id="2114"></path><path d="M642.965261 500.690713c2.261847 3.084337 2.673092 5.551807 1.850602 6.579919-1.850602 2.056225-8.019276-0.616867-17.272287-4.318072-23.646584-8.841766-41.124494-10.075501-71.967865 1.439357-7.813654 2.878715-13.365461 5.346184-16.038552 4.934939-4.318072-0.616867-0.205622-8.636144 9.253011-16.244175 19.12289-15.216063 45.236943-19.94538 67.44417-11.514858 9.869879 3.495582 20.973492 10.692368 26.730921 19.12289z m-4.729317 24.263451c-6.579919-4.934939-18.506022-8.224899-30.84337-6.168674-2.673092 0.411245-4.934939 1.233735-7.402409 1.850602-0.82249 0.205622-1.64498 0.616867-2.46747 0.82249-5.140562 2.261847-9.664256 4.523694-13.776705 8.636144-4.934939 4.729317-6.374297 9.253011-4.93494 10.281123 1.439357 1.028112 4.729317-0.616867 10.075501-2.673092 17.683532-7.402409 30.226503-7.608031 42.152607-6.785541 5.757429 0.411245 9.664256 0.82249 10.486746-0.82249 0.616867-1.028112-0.616867-3.084337-3.28996-5.140562z m-381.429681 90.679509c2.878715 2.261847 5.140562 4.729317 6.785542 7.196787 5.346184 7.813654 3.701204 12.131726 5.963052 14.393572 0.82249 0.82249 2.056225 1.028112 3.084337 0.616868 3.084337-1.233735 4.523694-6.168674 4.934939-9.664256 0.82249-8.224899-3.495582-17.47791-9.253011-24.057829-3.495582-4.112449-8.224899-8.019276-13.776706-11.103613-5.551807-3.084337-11.926103-5.346184-19.122889-6.57992-12.131726-1.850602-24.263451 0.616867-27.553411 1.439358-1.64498 0.411245-3.906827 1.028112-5.757429 1.64498-19.94538 7.813654-33.105218 22.001604-38.862647 40.918871-2.056225 7.196786-3.084337 14.18795-3.084337 20.562247 0 5.551807 0.616867 10.692368 1.64498 15.216063 1.64498 7.608031 5.140562 16.449798 10.486746 22.001604 6.785541 7.196786 14.18795 5.963052 10.89799-0.82249-0.82249-1.850602-4.729317-9.458634-5.346184-23.440962-0.411245-9.047389 0.82249-18.506022 4.318072-27.142166 1.850602-4.729317 4.318072-9.253011 7.608031-13.36546 6.785541-8.224899 15.01044-11.926103 16.038553-12.542971 1.233735-0.616867 2.46747-1.028112 3.701204-1.644979 0.411245-0.205622 1.028112-0.411245 1.850603-0.616868 4.112449-1.233735 1.850602-0.616867 5.963051-1.64498 16.038553-2.878715 29.815258 0.82249 39.479514 8.636144z m-3.495582 30.843371c-2.261847-1.64498-3.28996-3.28996-3.906826-5.551807-0.82249-4.112449-0.411245-6.579919 3.084337-9.047389 2.673092-1.850602 4.934939-2.878715 4.934939-3.906827 0.205622-2.261847-9.047389-4.523694-15.421685 1.850603-5.346184 5.757429-6.991164 17.47791 1.439357 26.730921 9.458634 10.281123 24.263451 12.542971 26.525298 25.497186 0.205622 1.850602 0.616867 3.906827 0.411245 5.757429 0 2.261847-0.82249 5.551807-0.822489 5.757429-2.878715 12.337348-14.599195 24.263451-34.13333 21.179114-3.495582-0.616867-5.963052-1.028112-6.579919 0-1.439357 2.056225 6.785541 11.514858 22.001604 11.309236 15.01044-0.411245 29.815258-11.514858 34.544575-28.170278 0-0.205622 1.439357-4.934939 1.644979-9.253011 0.205622-3.084337 0-6.374297-0.616867-9.869879-3.701204-21.590359-25.085941-25.908431-33.105218-32.282727zM773.329906 492.671436c-5.963052-0.82249-11.720481 4.934939-12.954215 12.954216-1.233735 8.019276 2.46747 15.421685 8.430521 16.244175 5.963052 0.82249 11.720481-4.934939 12.954216-12.954215 1.028112-8.019276-2.673092-15.421685-8.430522-16.244176zM708.558828 516.112398c-3.28996 5.963052 0.616867 14.393573 8.841767 18.711645 8.019276 4.523694 17.272287 3.28996 20.562247-2.673092 3.28996-5.963052-0.616867-14.393573-8.841767-18.711645-8.224899-4.318072-17.47791-3.084337-20.562247 2.673092zM471.270499 276.973466c111.447378-72.379109 222.894757-80.604008 261.140536-51.199995 0-0.205622-0.616867-1.850602-0.82249-2.261847-9.664256-20.562247-32.282728-34.95582-52.43373-40.713249 3.495582 3.701204 8.636144 10.486746 10.692369 14.393573-15.216063-10.486746-35.367065-19.739757-56.546179-24.057829 0 0 2.46747 1.850602 2.878714 2.261847 4.112449 3.906827 9.869879 10.075501 12.131726 15.421686-20.151002-8.019276-45.648188-12.542971-67.44417-8.430522-0.205622 0-2.673092 0.616867-2.673092 0.616868s2.878715 0.616867 3.495582 0.82249c7.196786 2.056225 17.47791 6.579919 22.001604 12.54297-36.189555-6.374297-76.080314 0.616867-97.46505 12.748593 2.673092-0.205622 2.673092-0.205622 5.140561 0 7.813654 0.205622 23.852206 1.233735 30.432126 5.551807-22.824094 4.729317-55.929312 14.804818-73.612844 30.226503 3.084337-0.411245 20.973492-2.673092 28.170278-1.439357-97.876295 55.929312-142.496371 140.645769-142.496371 140.645769 28.787146-37.834534 66.210435-74.024089 117.41043-107.129307z" fill="#9C7356" p-id="2115"></path><path d="M734.261637 434.891523c-0.205622-7.608031 1.028112-20.356624 8.224899-22.824094 12.337348-4.318072 28.787146 27.347788 29.404013 55.518066-9.869879-4.934939-21.179114-6.991164-33.105218-5.963051-2.673092-8.841766-4.112449-17.47791-4.523694-26.730921z" fill="#684C46" p-id="2116"></path></svg>